<mxfile host="app.diagrams.net" agent="Mozilla/5.0 (Windows NT 10.0; Win64; x64; rv:130.0) Gecko/20100101 Firefox/130.0" version="24.7.13">
  <diagram name="Page-1" id="Kcub2-hbG7lm7rp7ma1w">
    <mxGraphModel dx="1050" dy="529" grid="1" gridSize="10" guides="1" tooltips="1" connect="1" arrows="1" fold="1" page="1" pageScale="1" pageWidth="850" pageHeight="1100" math="0" shadow="0">
      <root>
        <mxCell id="0" />
        <mxCell id="1" parent="0" />
        <mxCell id="kYGGj88pUF9KkugqEUm3-1" style="edgeStyle=orthogonalEdgeStyle;rounded=0;orthogonalLoop=1;jettySize=auto;html=1;exitX=0.25;exitY=1;exitDx=0;exitDy=0;entryX=0.5;entryY=0;entryDx=0;entryDy=0;endArrow=none;endFill=0;" edge="1" parent="1" source="kYGGj88pUF9KkugqEUm3-5" target="kYGGj88pUF9KkugqEUm3-58">
          <mxGeometry relative="1" as="geometry" />
        </mxCell>
        <mxCell id="kYGGj88pUF9KkugqEUm3-2" style="edgeStyle=orthogonalEdgeStyle;rounded=0;orthogonalLoop=1;jettySize=auto;html=1;exitX=1;exitY=1;exitDx=0;exitDy=0;entryX=0;entryY=0.5;entryDx=0;entryDy=0;endArrow=none;endFill=0;" edge="1" parent="1" source="kYGGj88pUF9KkugqEUm3-5" target="kYGGj88pUF9KkugqEUm3-63">
          <mxGeometry relative="1" as="geometry" />
        </mxCell>
        <mxCell id="kYGGj88pUF9KkugqEUm3-3" style="edgeStyle=orthogonalEdgeStyle;rounded=0;orthogonalLoop=1;jettySize=auto;html=1;exitX=0.75;exitY=1;exitDx=0;exitDy=0;entryX=0;entryY=0.5;entryDx=0;entryDy=0;endArrow=none;endFill=0;" edge="1" parent="1" source="kYGGj88pUF9KkugqEUm3-5" target="kYGGj88pUF9KkugqEUm3-72">
          <mxGeometry relative="1" as="geometry" />
        </mxCell>
        <mxCell id="kYGGj88pUF9KkugqEUm3-4" style="edgeStyle=orthogonalEdgeStyle;rounded=0;orthogonalLoop=1;jettySize=auto;html=1;exitX=1;exitY=0.5;exitDx=0;exitDy=0;entryX=0.5;entryY=0;entryDx=0;entryDy=0;endArrow=none;endFill=0;" edge="1" parent="1" source="kYGGj88pUF9KkugqEUm3-5" target="kYGGj88pUF9KkugqEUm3-77">
          <mxGeometry relative="1" as="geometry" />
        </mxCell>
        <mxCell id="kYGGj88pUF9KkugqEUm3-84" value="0...N" style="edgeLabel;html=1;align=center;verticalAlign=middle;resizable=0;points=[];" vertex="1" connectable="0" parent="kYGGj88pUF9KkugqEUm3-4">
          <mxGeometry x="-0.9074" y="5" relative="1" as="geometry">
            <mxPoint x="6" y="-5" as="offset" />
          </mxGeometry>
        </mxCell>
        <mxCell id="kYGGj88pUF9KkugqEUm3-5" value="User" style="rounded=0;whiteSpace=wrap;html=1;" vertex="1" parent="1">
          <mxGeometry x="190" y="160" width="120" height="60" as="geometry" />
        </mxCell>
        <mxCell id="kYGGj88pUF9KkugqEUm3-6" value="&lt;u&gt;Username&lt;/u&gt;" style="ellipse;whiteSpace=wrap;html=1;" vertex="1" parent="1">
          <mxGeometry x="106" y="70" width="80" height="30" as="geometry" />
        </mxCell>
        <mxCell id="kYGGj88pUF9KkugqEUm3-7" style="edgeStyle=orthogonalEdgeStyle;rounded=0;orthogonalLoop=1;jettySize=auto;html=1;exitX=0.5;exitY=1;exitDx=0;exitDy=0;entryX=0.25;entryY=0;entryDx=0;entryDy=0;endArrow=none;endFill=0;" edge="1" parent="1" source="kYGGj88pUF9KkugqEUm3-8" target="kYGGj88pUF9KkugqEUm3-5">
          <mxGeometry relative="1" as="geometry" />
        </mxCell>
        <mxCell id="kYGGj88pUF9KkugqEUm3-8" value="&lt;div&gt;Password&lt;/div&gt;" style="ellipse;whiteSpace=wrap;html=1;" vertex="1" parent="1">
          <mxGeometry x="180" y="40" width="80" height="30" as="geometry" />
        </mxCell>
        <mxCell id="kYGGj88pUF9KkugqEUm3-9" value="First name" style="ellipse;whiteSpace=wrap;html=1;" vertex="1" parent="1">
          <mxGeometry x="220" y="80" width="80" height="30" as="geometry" />
        </mxCell>
        <mxCell id="kYGGj88pUF9KkugqEUm3-10" style="edgeStyle=orthogonalEdgeStyle;rounded=0;orthogonalLoop=1;jettySize=auto;html=1;exitX=0.5;exitY=1;exitDx=0;exitDy=0;entryX=1;entryY=0;entryDx=0;entryDy=0;curved=0;endArrow=none;endFill=0;" edge="1" parent="1" source="kYGGj88pUF9KkugqEUm3-11" target="kYGGj88pUF9KkugqEUm3-5">
          <mxGeometry relative="1" as="geometry" />
        </mxCell>
        <mxCell id="kYGGj88pUF9KkugqEUm3-11" value="&lt;div&gt;Last Name&lt;/div&gt;" style="ellipse;whiteSpace=wrap;html=1;" vertex="1" parent="1">
          <mxGeometry x="270" y="25" width="80" height="30" as="geometry" />
        </mxCell>
        <mxCell id="kYGGj88pUF9KkugqEUm3-12" style="edgeStyle=orthogonalEdgeStyle;rounded=0;orthogonalLoop=1;jettySize=auto;html=1;exitX=1;exitY=0.5;exitDx=0;exitDy=0;entryX=0;entryY=0;entryDx=0;entryDy=0;endArrow=none;endFill=0;" edge="1" parent="1" source="kYGGj88pUF9KkugqEUm3-13" target="kYGGj88pUF9KkugqEUm3-5">
          <mxGeometry relative="1" as="geometry" />
        </mxCell>
        <mxCell id="kYGGj88pUF9KkugqEUm3-13" value="&lt;u&gt;Email&lt;/u&gt;" style="ellipse;whiteSpace=wrap;html=1;" vertex="1" parent="1">
          <mxGeometry x="40" y="110" width="80" height="30" as="geometry" />
        </mxCell>
        <mxCell id="kYGGj88pUF9KkugqEUm3-14" style="edgeStyle=orthogonalEdgeStyle;rounded=0;orthogonalLoop=1;jettySize=auto;html=1;exitX=1;exitY=0.5;exitDx=0;exitDy=0;entryX=0;entryY=0.5;entryDx=0;entryDy=0;endArrow=none;endFill=0;" edge="1" parent="1" source="kYGGj88pUF9KkugqEUm3-15" target="kYGGj88pUF9KkugqEUm3-5">
          <mxGeometry relative="1" as="geometry" />
        </mxCell>
        <mxCell id="kYGGj88pUF9KkugqEUm3-15" value="Creation Date" style="ellipse;whiteSpace=wrap;html=1;" vertex="1" parent="1">
          <mxGeometry x="40" y="155" width="80" height="30" as="geometry" />
        </mxCell>
        <mxCell id="kYGGj88pUF9KkugqEUm3-16" style="edgeStyle=orthogonalEdgeStyle;rounded=0;orthogonalLoop=1;jettySize=auto;html=1;exitX=1;exitY=0.5;exitDx=0;exitDy=0;entryX=0;entryY=0.75;entryDx=0;entryDy=0;endArrow=none;endFill=0;" edge="1" parent="1" source="kYGGj88pUF9KkugqEUm3-17" target="kYGGj88pUF9KkugqEUm3-5">
          <mxGeometry relative="1" as="geometry" />
        </mxCell>
        <mxCell id="kYGGj88pUF9KkugqEUm3-17" value="Last Acc. date" style="ellipse;whiteSpace=wrap;html=1;" vertex="1" parent="1">
          <mxGeometry x="40" y="197" width="80" height="30" as="geometry" />
        </mxCell>
        <mxCell id="kYGGj88pUF9KkugqEUm3-18" style="edgeStyle=orthogonalEdgeStyle;rounded=0;orthogonalLoop=1;jettySize=auto;html=1;exitX=1;exitY=0.5;exitDx=0;exitDy=0;entryX=0;entryY=1;entryDx=0;entryDy=0;endArrow=none;endFill=0;" edge="1" parent="1" source="kYGGj88pUF9KkugqEUm3-19" target="kYGGj88pUF9KkugqEUm3-5">
          <mxGeometry relative="1" as="geometry" />
        </mxCell>
        <mxCell id="kYGGj88pUF9KkugqEUm3-19" value="Platforms" style="ellipse;shape=doubleEllipse;whiteSpace=wrap;html=1;" vertex="1" parent="1">
          <mxGeometry x="40" y="235" width="80" height="30" as="geometry" />
        </mxCell>
        <mxCell id="kYGGj88pUF9KkugqEUm3-20" style="edgeStyle=orthogonalEdgeStyle;rounded=0;orthogonalLoop=1;jettySize=auto;html=1;exitX=1;exitY=1;exitDx=0;exitDy=0;entryX=0.167;entryY=0.017;entryDx=0;entryDy=0;entryPerimeter=0;endArrow=none;endFill=0;" edge="1" parent="1" source="kYGGj88pUF9KkugqEUm3-6" target="kYGGj88pUF9KkugqEUm3-5">
          <mxGeometry relative="1" as="geometry" />
        </mxCell>
        <mxCell id="kYGGj88pUF9KkugqEUm3-21" style="edgeStyle=orthogonalEdgeStyle;rounded=0;orthogonalLoop=1;jettySize=auto;html=1;exitX=0.5;exitY=1;exitDx=0;exitDy=0;endArrow=none;endFill=0;entryX=0.583;entryY=0.044;entryDx=0;entryDy=0;entryPerimeter=0;" edge="1" parent="1" source="kYGGj88pUF9KkugqEUm3-9" target="kYGGj88pUF9KkugqEUm3-5">
          <mxGeometry relative="1" as="geometry">
            <mxPoint x="240" y="160" as="targetPoint" />
          </mxGeometry>
        </mxCell>
        <mxCell id="kYGGj88pUF9KkugqEUm3-22" style="edgeStyle=orthogonalEdgeStyle;rounded=0;orthogonalLoop=1;jettySize=auto;html=1;exitX=0.25;exitY=1;exitDx=0;exitDy=0;entryX=0;entryY=0.5;entryDx=0;entryDy=0;endArrow=none;endFill=0;" edge="1" parent="1" source="kYGGj88pUF9KkugqEUm3-24" target="kYGGj88pUF9KkugqEUm3-52">
          <mxGeometry relative="1" as="geometry">
            <Array as="points">
              <mxPoint x="180" y="863" />
              <mxPoint x="60" y="863" />
              <mxPoint x="60" y="975" />
            </Array>
          </mxGeometry>
        </mxCell>
        <mxCell id="kYGGj88pUF9KkugqEUm3-23" style="edgeStyle=orthogonalEdgeStyle;rounded=0;orthogonalLoop=1;jettySize=auto;html=1;exitX=1.14;exitY=-0.2;exitDx=0;exitDy=0;entryX=0.5;entryY=0;entryDx=0;entryDy=0;endArrow=none;endFill=0;exitPerimeter=0;" edge="1" parent="1" source="kYGGj88pUF9KkugqEUm3-66" target="kYGGj88pUF9KkugqEUm3-50">
          <mxGeometry relative="1" as="geometry" />
        </mxCell>
        <mxCell id="kYGGj88pUF9KkugqEUm3-24" value="Video Game" style="rounded=0;whiteSpace=wrap;html=1;" vertex="1" parent="1">
          <mxGeometry x="150" y="710" width="120" height="60" as="geometry" />
        </mxCell>
        <mxCell id="kYGGj88pUF9KkugqEUm3-25" style="edgeStyle=orthogonalEdgeStyle;rounded=0;orthogonalLoop=1;jettySize=auto;html=1;exitX=1;exitY=1;exitDx=0;exitDy=0;entryX=0;entryY=0;entryDx=0;entryDy=0;endArrow=none;endFill=0;" edge="1" parent="1" source="kYGGj88pUF9KkugqEUm3-26" target="kYGGj88pUF9KkugqEUm3-24">
          <mxGeometry relative="1" as="geometry" />
        </mxCell>
        <mxCell id="kYGGj88pUF9KkugqEUm3-26" value="Title" style="ellipse;whiteSpace=wrap;html=1;" vertex="1" parent="1">
          <mxGeometry x="40" y="660" width="80" height="30" as="geometry" />
        </mxCell>
        <mxCell id="kYGGj88pUF9KkugqEUm3-27" style="edgeStyle=orthogonalEdgeStyle;rounded=0;orthogonalLoop=1;jettySize=auto;html=1;exitX=0.5;exitY=1;exitDx=0;exitDy=0;entryX=0.25;entryY=0;entryDx=0;entryDy=0;endArrow=none;endFill=0;" edge="1" parent="1" source="kYGGj88pUF9KkugqEUm3-28" target="kYGGj88pUF9KkugqEUm3-24">
          <mxGeometry relative="1" as="geometry" />
        </mxCell>
        <mxCell id="kYGGj88pUF9KkugqEUm3-28" value="Genres" style="ellipse;shape=doubleEllipse;whiteSpace=wrap;html=1;" vertex="1" parent="1">
          <mxGeometry x="145" y="620" width="80" height="30" as="geometry" />
        </mxCell>
        <mxCell id="kYGGj88pUF9KkugqEUm3-29" style="edgeStyle=orthogonalEdgeStyle;rounded=0;orthogonalLoop=1;jettySize=auto;html=1;exitX=1;exitY=0;exitDx=0;exitDy=0;entryX=0.5;entryY=1;entryDx=0;entryDy=0;endArrow=none;endFill=0;" edge="1" parent="1" source="kYGGj88pUF9KkugqEUm3-32" target="kYGGj88pUF9KkugqEUm3-34">
          <mxGeometry relative="1" as="geometry" />
        </mxCell>
        <mxCell id="kYGGj88pUF9KkugqEUm3-30" style="edgeStyle=orthogonalEdgeStyle;rounded=0;orthogonalLoop=1;jettySize=auto;html=1;exitX=0.5;exitY=1;exitDx=0;exitDy=0;entryX=0.5;entryY=0;entryDx=0;entryDy=0;endArrow=none;endFill=0;" edge="1" parent="1" source="kYGGj88pUF9KkugqEUm3-32" target="kYGGj88pUF9KkugqEUm3-24">
          <mxGeometry relative="1" as="geometry" />
        </mxCell>
        <mxCell id="kYGGj88pUF9KkugqEUm3-31" style="edgeStyle=orthogonalEdgeStyle;rounded=0;orthogonalLoop=1;jettySize=auto;html=1;exitX=0.5;exitY=0;exitDx=0;exitDy=0;entryX=0.5;entryY=1;entryDx=0;entryDy=0;endArrow=none;endFill=0;" edge="1" parent="1" source="kYGGj88pUF9KkugqEUm3-32" target="kYGGj88pUF9KkugqEUm3-42">
          <mxGeometry relative="1" as="geometry" />
        </mxCell>
        <mxCell id="kYGGj88pUF9KkugqEUm3-32" value="Platforms" style="ellipse;shape=doubleEllipse;whiteSpace=wrap;html=1;" vertex="1" parent="1">
          <mxGeometry x="210" y="645" width="80" height="30" as="geometry" />
        </mxCell>
        <mxCell id="kYGGj88pUF9KkugqEUm3-33" value="Name" style="ellipse;whiteSpace=wrap;html=1;" vertex="1" parent="1">
          <mxGeometry x="397.5" y="850" width="90" height="30" as="geometry" />
        </mxCell>
        <mxCell id="kYGGj88pUF9KkugqEUm3-34" value="&lt;div&gt;Price&lt;/div&gt;" style="ellipse;whiteSpace=wrap;html=1;" vertex="1" parent="1">
          <mxGeometry x="257" y="560" width="90" height="30" as="geometry" />
        </mxCell>
        <mxCell id="kYGGj88pUF9KkugqEUm3-35" style="edgeStyle=orthogonalEdgeStyle;rounded=0;orthogonalLoop=1;jettySize=auto;html=1;exitX=1;exitY=1;exitDx=0;exitDy=0;entryX=0;entryY=0.5;entryDx=0;entryDy=0;endArrow=none;endFill=0;" edge="1" parent="1" source="kYGGj88pUF9KkugqEUm3-36" target="kYGGj88pUF9KkugqEUm3-24">
          <mxGeometry relative="1" as="geometry" />
        </mxCell>
        <mxCell id="kYGGj88pUF9KkugqEUm3-36" value="ESRB" style="ellipse;whiteSpace=wrap;html=1;" vertex="1" parent="1">
          <mxGeometry x="30" y="760" width="80" height="30" as="geometry" />
        </mxCell>
        <mxCell id="kYGGj88pUF9KkugqEUm3-37" style="edgeStyle=orthogonalEdgeStyle;rounded=0;orthogonalLoop=1;jettySize=auto;html=1;exitX=1;exitY=0;exitDx=0;exitDy=0;entryX=0;entryY=0.5;entryDx=0;entryDy=0;endArrow=none;endFill=0;" edge="1" parent="1" source="kYGGj88pUF9KkugqEUm3-38" target="kYGGj88pUF9KkugqEUm3-33">
          <mxGeometry relative="1" as="geometry" />
        </mxCell>
        <mxCell id="kYGGj88pUF9KkugqEUm3-38" value="Developer" style="rounded=0;whiteSpace=wrap;html=1;" vertex="1" parent="1">
          <mxGeometry x="242.5" y="870" width="120" height="60" as="geometry" />
        </mxCell>
        <mxCell id="kYGGj88pUF9KkugqEUm3-39" style="edgeStyle=orthogonalEdgeStyle;rounded=0;orthogonalLoop=1;jettySize=auto;html=1;exitX=1;exitY=0.25;exitDx=0;exitDy=0;entryX=0;entryY=0.5;entryDx=0;entryDy=0;endArrow=none;endFill=0;" edge="1" parent="1" source="kYGGj88pUF9KkugqEUm3-41" target="kYGGj88pUF9KkugqEUm3-47">
          <mxGeometry relative="1" as="geometry" />
        </mxCell>
        <mxCell id="kYGGj88pUF9KkugqEUm3-40" style="edgeStyle=orthogonalEdgeStyle;rounded=0;orthogonalLoop=1;jettySize=auto;html=1;exitX=1;exitY=1;exitDx=0;exitDy=0;entryX=0;entryY=0.5;entryDx=0;entryDy=0;endArrow=none;endFill=0;" edge="1" parent="1" source="kYGGj88pUF9KkugqEUm3-41" target="kYGGj88pUF9KkugqEUm3-48">
          <mxGeometry relative="1" as="geometry" />
        </mxCell>
        <mxCell id="kYGGj88pUF9KkugqEUm3-41" value="Publisher" style="rounded=0;whiteSpace=wrap;html=1;" vertex="1" parent="1">
          <mxGeometry x="242.5" y="945" width="120" height="60" as="geometry" />
        </mxCell>
        <mxCell id="kYGGj88pUF9KkugqEUm3-42" value="Release Dates" style="ellipse;whiteSpace=wrap;html=1;" vertex="1" parent="1">
          <mxGeometry x="195" y="590" width="90" height="30" as="geometry" />
        </mxCell>
        <mxCell id="kYGGj88pUF9KkugqEUm3-43" style="edgeStyle=orthogonalEdgeStyle;rounded=0;orthogonalLoop=1;jettySize=auto;html=1;exitX=1;exitY=0.5;exitDx=0;exitDy=0;entryX=0;entryY=0.25;entryDx=0;entryDy=0;endArrow=none;endFill=0;" edge="1" parent="1" source="kYGGj88pUF9KkugqEUm3-44" target="kYGGj88pUF9KkugqEUm3-24">
          <mxGeometry relative="1" as="geometry" />
        </mxCell>
        <mxCell id="kYGGj88pUF9KkugqEUm3-44" value="&lt;u&gt;ID&lt;/u&gt;" style="ellipse;whiteSpace=wrap;html=1;" vertex="1" parent="1">
          <mxGeometry x="25" y="710" width="80" height="30" as="geometry" />
        </mxCell>
        <mxCell id="kYGGj88pUF9KkugqEUm3-45" style="edgeStyle=orthogonalEdgeStyle;rounded=0;orthogonalLoop=1;jettySize=auto;html=1;exitX=0;exitY=0.5;exitDx=0;exitDy=0;entryX=1;entryY=0.75;entryDx=0;entryDy=0;endArrow=none;endFill=0;" edge="1" parent="1" source="kYGGj88pUF9KkugqEUm3-46" target="kYGGj88pUF9KkugqEUm3-38">
          <mxGeometry relative="1" as="geometry" />
        </mxCell>
        <mxCell id="kYGGj88pUF9KkugqEUm3-46" value="&lt;u&gt;ID&lt;/u&gt;" style="ellipse;whiteSpace=wrap;html=1;" vertex="1" parent="1">
          <mxGeometry x="387.5" y="900" width="90" height="30" as="geometry" />
        </mxCell>
        <mxCell id="kYGGj88pUF9KkugqEUm3-47" value="Name" style="ellipse;whiteSpace=wrap;html=1;" vertex="1" parent="1">
          <mxGeometry x="417.5" y="945" width="90" height="30" as="geometry" />
        </mxCell>
        <mxCell id="kYGGj88pUF9KkugqEUm3-48" value="&lt;u&gt;ID&lt;/u&gt;" style="ellipse;whiteSpace=wrap;html=1;" vertex="1" parent="1">
          <mxGeometry x="397.5" y="980" width="90" height="30" as="geometry" />
        </mxCell>
        <mxCell id="kYGGj88pUF9KkugqEUm3-49" style="edgeStyle=orthogonalEdgeStyle;rounded=0;orthogonalLoop=1;jettySize=auto;html=1;exitX=1;exitY=0.5;exitDx=0;exitDy=0;entryX=0;entryY=0.5;entryDx=0;entryDy=0;endArrow=none;endFill=0;" edge="1" parent="1" source="kYGGj88pUF9KkugqEUm3-50" target="kYGGj88pUF9KkugqEUm3-38">
          <mxGeometry relative="1" as="geometry" />
        </mxCell>
        <mxCell id="kYGGj88pUF9KkugqEUm3-50" value="" style="rhombus;whiteSpace=wrap;html=1;" vertex="1" parent="1">
          <mxGeometry x="178" y="880" width="40" height="40" as="geometry" />
        </mxCell>
        <mxCell id="kYGGj88pUF9KkugqEUm3-51" style="edgeStyle=orthogonalEdgeStyle;rounded=0;orthogonalLoop=1;jettySize=auto;html=1;exitX=1;exitY=0.5;exitDx=0;exitDy=0;entryX=0;entryY=0.5;entryDx=0;entryDy=0;endArrow=none;endFill=0;" edge="1" parent="1" source="kYGGj88pUF9KkugqEUm3-52" target="kYGGj88pUF9KkugqEUm3-41">
          <mxGeometry relative="1" as="geometry" />
        </mxCell>
        <mxCell id="kYGGj88pUF9KkugqEUm3-52" value="" style="rhombus;whiteSpace=wrap;html=1;" vertex="1" parent="1">
          <mxGeometry x="178" y="955" width="40" height="40" as="geometry" />
        </mxCell>
        <mxCell id="kYGGj88pUF9KkugqEUm3-53" value="Has" style="text;html=1;align=center;verticalAlign=middle;resizable=0;points=[];autosize=1;strokeColor=none;fillColor=none;" vertex="1" parent="1">
          <mxGeometry x="192.5" y="837" width="40" height="30" as="geometry" />
        </mxCell>
        <mxCell id="kYGGj88pUF9KkugqEUm3-54" value="Has" style="text;html=1;align=center;verticalAlign=middle;resizable=0;points=[];autosize=1;strokeColor=none;fillColor=none;" vertex="1" parent="1">
          <mxGeometry x="146" y="837" width="40" height="30" as="geometry" />
        </mxCell>
        <mxCell id="kYGGj88pUF9KkugqEUm3-55" value="1..N" style="text;html=1;align=center;verticalAlign=middle;resizable=0;points=[];autosize=1;strokeColor=none;fillColor=none;" vertex="1" parent="1">
          <mxGeometry x="310" y="680" width="40" height="30" as="geometry" />
        </mxCell>
        <mxCell id="kYGGj88pUF9KkugqEUm3-56" value="1..N" style="text;html=1;align=center;verticalAlign=middle;resizable=0;points=[];autosize=1;strokeColor=none;fillColor=none;" vertex="1" parent="1">
          <mxGeometry x="300" y="707" width="40" height="30" as="geometry" />
        </mxCell>
        <mxCell id="kYGGj88pUF9KkugqEUm3-57" style="edgeStyle=orthogonalEdgeStyle;rounded=0;orthogonalLoop=1;jettySize=auto;html=1;exitX=1;exitY=0.5;exitDx=0;exitDy=0;endArrow=none;endFill=0;" edge="1" parent="1" source="kYGGj88pUF9KkugqEUm3-58">
          <mxGeometry relative="1" as="geometry">
            <mxPoint x="230" y="220" as="targetPoint" />
          </mxGeometry>
        </mxCell>
        <mxCell id="kYGGj88pUF9KkugqEUm3-58" value="" style="rhombus;whiteSpace=wrap;html=1;" vertex="1" parent="1">
          <mxGeometry x="180" y="280" width="40" height="40" as="geometry" />
        </mxCell>
        <mxCell id="kYGGj88pUF9KkugqEUm3-59" value="Follows" style="text;html=1;align=center;verticalAlign=middle;resizable=0;points=[];autosize=1;strokeColor=none;fillColor=none;" vertex="1" parent="1">
          <mxGeometry x="140" y="255" width="60" height="30" as="geometry" />
        </mxCell>
        <mxCell id="kYGGj88pUF9KkugqEUm3-60" value="0..M" style="text;html=1;align=center;verticalAlign=middle;resizable=0;points=[];autosize=1;strokeColor=none;fillColor=none;" vertex="1" parent="1">
          <mxGeometry x="218" y="227" width="50" height="30" as="geometry" />
        </mxCell>
        <mxCell id="kYGGj88pUF9KkugqEUm3-61" value="0..N" style="text;html=1;align=center;verticalAlign=middle;resizable=0;points=[];autosize=1;strokeColor=none;fillColor=none;" vertex="1" parent="1">
          <mxGeometry x="186" y="227" width="40" height="30" as="geometry" />
        </mxCell>
        <mxCell id="kYGGj88pUF9KkugqEUm3-62" style="edgeStyle=orthogonalEdgeStyle;rounded=0;orthogonalLoop=1;jettySize=auto;html=1;exitX=1;exitY=0.5;exitDx=0;exitDy=0;entryX=1;entryY=0.25;entryDx=0;entryDy=0;endArrow=none;endFill=0;" edge="1" parent="1" source="kYGGj88pUF9KkugqEUm3-63" target="kYGGj88pUF9KkugqEUm3-24">
          <mxGeometry relative="1" as="geometry">
            <Array as="points">
              <mxPoint x="390" y="330" />
              <mxPoint x="390" y="730" />
              <mxPoint x="300" y="730" />
              <mxPoint x="300" y="725" />
            </Array>
          </mxGeometry>
        </mxCell>
        <mxCell id="kYGGj88pUF9KkugqEUm3-83" style="edgeStyle=orthogonalEdgeStyle;rounded=0;orthogonalLoop=1;jettySize=auto;html=1;exitX=0.5;exitY=0;exitDx=0;exitDy=0;entryX=0;entryY=0.5;entryDx=0;entryDy=0;endArrow=none;endFill=0;" edge="1" parent="1" source="kYGGj88pUF9KkugqEUm3-63" target="kYGGj88pUF9KkugqEUm3-82">
          <mxGeometry relative="1" as="geometry">
            <Array as="points">
              <mxPoint x="350" y="290" />
              <mxPoint x="450" y="290" />
              <mxPoint x="450" y="253" />
            </Array>
          </mxGeometry>
        </mxCell>
        <mxCell id="kYGGj88pUF9KkugqEUm3-63" value="" style="rhombus;whiteSpace=wrap;html=1;" vertex="1" parent="1">
          <mxGeometry x="330" y="310" width="40" height="40" as="geometry" />
        </mxCell>
        <mxCell id="kYGGj88pUF9KkugqEUm3-64" value="Rates" style="text;html=1;align=center;verticalAlign=middle;resizable=0;points=[];autosize=1;strokeColor=none;fillColor=none;" vertex="1" parent="1">
          <mxGeometry x="305" y="250" width="50" height="30" as="geometry" />
        </mxCell>
        <mxCell id="kYGGj88pUF9KkugqEUm3-65" value="0..N" style="text;html=1;align=center;verticalAlign=middle;resizable=0;points=[];autosize=1;strokeColor=none;fillColor=none;" vertex="1" parent="1">
          <mxGeometry x="310" y="225" width="40" height="30" as="geometry" />
        </mxCell>
        <mxCell id="kYGGj88pUF9KkugqEUm3-66" value="0..M" style="text;html=1;align=center;verticalAlign=middle;resizable=0;points=[];autosize=1;strokeColor=none;fillColor=none;" vertex="1" parent="1">
          <mxGeometry x="145" y="776" width="50" height="30" as="geometry" />
        </mxCell>
        <mxCell id="kYGGj88pUF9KkugqEUm3-67" value="0..M" style="text;html=1;align=center;verticalAlign=middle;resizable=0;points=[];autosize=1;strokeColor=none;fillColor=none;" vertex="1" parent="1">
          <mxGeometry x="65.5" y="820" width="50" height="30" as="geometry" />
        </mxCell>
        <mxCell id="kYGGj88pUF9KkugqEUm3-68" value="0..M" style="text;html=1;align=center;verticalAlign=middle;resizable=0;points=[];autosize=1;strokeColor=none;fillColor=none;" vertex="1" parent="1">
          <mxGeometry x="132.5" y="945" width="50" height="30" as="geometry" />
        </mxCell>
        <mxCell id="kYGGj88pUF9KkugqEUm3-69" style="edgeStyle=orthogonalEdgeStyle;rounded=0;orthogonalLoop=1;jettySize=auto;html=1;exitX=1;exitY=0.5;exitDx=0;exitDy=0;entryX=1;entryY=0;entryDx=0;entryDy=0;endArrow=none;endFill=0;" edge="1" parent="1" source="kYGGj88pUF9KkugqEUm3-72" target="kYGGj88pUF9KkugqEUm3-24">
          <mxGeometry relative="1" as="geometry">
            <Array as="points">
              <mxPoint x="370" y="390" />
              <mxPoint x="370" y="710" />
            </Array>
          </mxGeometry>
        </mxCell>
        <mxCell id="kYGGj88pUF9KkugqEUm3-70" style="edgeStyle=orthogonalEdgeStyle;rounded=0;orthogonalLoop=1;jettySize=auto;html=1;exitX=0.5;exitY=1;exitDx=0;exitDy=0;entryX=0.5;entryY=0;entryDx=0;entryDy=0;endArrow=none;endFill=0;" edge="1" parent="1" source="kYGGj88pUF9KkugqEUm3-72" target="kYGGj88pUF9KkugqEUm3-73">
          <mxGeometry relative="1" as="geometry" />
        </mxCell>
        <mxCell id="kYGGj88pUF9KkugqEUm3-71" style="edgeStyle=orthogonalEdgeStyle;rounded=0;orthogonalLoop=1;jettySize=auto;html=1;exitX=1;exitY=1;exitDx=0;exitDy=0;entryX=0;entryY=0;entryDx=0;entryDy=0;endArrow=none;endFill=0;" edge="1" parent="1" source="kYGGj88pUF9KkugqEUm3-72" target="kYGGj88pUF9KkugqEUm3-74">
          <mxGeometry relative="1" as="geometry" />
        </mxCell>
        <mxCell id="kYGGj88pUF9KkugqEUm3-72" value="Collection" style="rhombus;whiteSpace=wrap;html=1;" vertex="1" parent="1">
          <mxGeometry x="270" y="360" width="60" height="60" as="geometry" />
        </mxCell>
        <mxCell id="kYGGj88pUF9KkugqEUm3-73" value="Name" style="ellipse;whiteSpace=wrap;html=1;" vertex="1" parent="1">
          <mxGeometry x="138" y="440" width="80" height="30" as="geometry" />
        </mxCell>
        <mxCell id="kYGGj88pUF9KkugqEUm3-74" value="&lt;u&gt;ID&lt;/u&gt;" style="ellipse;whiteSpace=wrap;html=1;" vertex="1" parent="1">
          <mxGeometry x="223" y="480" width="80" height="30" as="geometry" />
        </mxCell>
        <mxCell id="kYGGj88pUF9KkugqEUm3-75" value="Creates" style="text;html=1;align=center;verticalAlign=middle;resizable=0;points=[];autosize=1;strokeColor=none;fillColor=none;" vertex="1" parent="1">
          <mxGeometry x="193" y="360" width="70" height="30" as="geometry" />
        </mxCell>
        <mxCell id="kYGGj88pUF9KkugqEUm3-76" style="edgeStyle=orthogonalEdgeStyle;rounded=0;orthogonalLoop=1;jettySize=auto;html=1;exitX=0.5;exitY=1;exitDx=0;exitDy=0;entryX=1;entryY=0.75;entryDx=0;entryDy=0;endArrow=none;endFill=0;" edge="1" parent="1" source="kYGGj88pUF9KkugqEUm3-77" target="kYGGj88pUF9KkugqEUm3-24">
          <mxGeometry relative="1" as="geometry" />
        </mxCell>
        <mxCell id="kYGGj88pUF9KkugqEUm3-85" value="1" style="edgeLabel;html=1;align=center;verticalAlign=middle;resizable=0;points=[];" vertex="1" connectable="0" parent="kYGGj88pUF9KkugqEUm3-76">
          <mxGeometry x="0.8974" y="3" relative="1" as="geometry">
            <mxPoint x="-10" y="12" as="offset" />
          </mxGeometry>
        </mxCell>
        <mxCell id="kYGGj88pUF9KkugqEUm3-77" value="Playtime" style="rhombus;whiteSpace=wrap;html=1;" vertex="1" parent="1">
          <mxGeometry x="402.5" y="370" width="60" height="60" as="geometry" />
        </mxCell>
        <mxCell id="kYGGj88pUF9KkugqEUm3-78" style="edgeStyle=orthogonalEdgeStyle;rounded=0;orthogonalLoop=1;jettySize=auto;html=1;exitX=0;exitY=0.5;exitDx=0;exitDy=0;entryX=1;entryY=0;entryDx=0;entryDy=0;endArrow=none;endFill=0;" edge="1" parent="1" source="kYGGj88pUF9KkugqEUm3-79" target="kYGGj88pUF9KkugqEUm3-77">
          <mxGeometry relative="1" as="geometry" />
        </mxCell>
        <mxCell id="kYGGj88pUF9KkugqEUm3-79" value="Date" style="ellipse;whiteSpace=wrap;html=1;" vertex="1" parent="1">
          <mxGeometry x="500" y="360" width="80" height="30" as="geometry" />
        </mxCell>
        <mxCell id="kYGGj88pUF9KkugqEUm3-80" style="edgeStyle=orthogonalEdgeStyle;rounded=0;orthogonalLoop=1;jettySize=auto;html=1;exitX=0;exitY=0.5;exitDx=0;exitDy=0;entryX=1;entryY=1;entryDx=0;entryDy=0;endArrow=none;endFill=0;" edge="1" parent="1" source="kYGGj88pUF9KkugqEUm3-81" target="kYGGj88pUF9KkugqEUm3-77">
          <mxGeometry relative="1" as="geometry" />
        </mxCell>
        <mxCell id="kYGGj88pUF9KkugqEUm3-81" value="Duration" style="ellipse;whiteSpace=wrap;html=1;" vertex="1" parent="1">
          <mxGeometry x="500" y="410" width="80" height="30" as="geometry" />
        </mxCell>
        <mxCell id="kYGGj88pUF9KkugqEUm3-82" value="Rating" style="ellipse;whiteSpace=wrap;html=1;" vertex="1" parent="1">
          <mxGeometry x="478" y="235" width="62" height="35" as="geometry" />
        </mxCell>
        <mxCell id="kYGGj88pUF9KkugqEUm3-86" value="Make collection its own entity (related to Users &amp;amp; Games). Same for genre (which feels weird but TA said to so) (but I guess its like have Dev be its own entity instead of an attribute). Give Users IDs too. Game needs at least one Publisher and Developer. Devs and Publishers can have none games tho that&#39;s cool. Maybe Platform is its own entity too tbh. Collections can have none game. Add Cardinalities. Consider storing start datetime and end datetime (then deriving duration) for Playtime?" style="rounded=0;whiteSpace=wrap;html=1;" vertex="1" parent="1">
          <mxGeometry x="670" y="350" width="260" height="160" as="geometry" />
        </mxCell>
      </root>
    </mxGraphModel>
  </diagram>
</mxfile>
